<svg width="100%" height="100%" viewBox="0 0 60 60" fill="none" xmlns="http://www.w3.org/2000/svg">
<path d="M7.5 26.4507L26.746 9.95375C28.6185 8.34875 31.3815 8.34875 33.254 9.95375L52.5 26.4507" stroke="#000000" stroke-width="1.5" stroke-linecap="round" stroke-linejoin="round"></path>
<path d="M27.5 52.5H7.5" stroke="#000000" stroke-width="1.5" stroke-linecap="round" stroke-linejoin="round"></path>
<path d="M39.059 14.9296V9.375C39.059 8.33947 39.8984 7.5 40.934 7.5H47.4112C48.4468 7.5 49.2862 8.33947 49.2862 9.375V23.696" stroke="#000000" stroke-width="1.5" stroke-linecap="round" stroke-linejoin="round"></path>
<path d="M10.7137 23.6959V52.4999" stroke="#000000" stroke-width="1.5" stroke-linecap="round" stroke-linejoin="round"></path>
<path fill-rule="evenodd" clip-rule="evenodd" d="M41.6677 32.5H35.47C33.8296 32.5001 32.4999 33.83 32.5 35.4703V41.6665C32.501 42.455 32.8152 43.2108 33.3735 43.7676L41.2353 51.6301C42.3958 52.7899 44.2765 52.7899 45.437 51.6301L51.6303 45.4383C52.7899 44.2776 52.7899 42.3968 51.6303 41.2361L43.7685 33.3736C43.2119 32.8153 42.4561 32.501 41.6677 32.5V32.5Z" stroke="#000000" stroke-width="1.5" stroke-linecap="round" stroke-linejoin="round"></path>
<path d="M38.8307 38.8306C38.7874 38.874 38.7875 38.9443 38.8309 38.9877C38.8743 39.031 38.9446 39.031 38.988 38.9876C39.0314 38.9443 39.0314 38.8739 38.9881 38.8305C38.9447 38.7871 38.8744 38.7871 38.8309 38.8304L38.8307 38.8306" stroke="#000000" stroke-width="1.5" stroke-linecap="round" stroke-linejoin="round"></path>
</svg>